{
  "accessors": [
    {
      "bufferView": 2,
      "componentType": 5126,
      "count": 162,
      "max": [
        0.48027390241622925,
        0.48027390241622925,
        0.03808128461241722
      ],
      "min": [
        -0.48027390241622925,
        -0.48027390241622925,
        -0.03808128461241722
      ],
      "type": "VEC3"
    },
    {
      "bufferView": 2,
      "byteOffset": 1944,
      "componentType": 5126,
      "count": 162,
      "max": [
        0.9810775518417358,
        0.9810775518417358,
        1.0
      ],
      "min": [
        -0.9810775518417358,
        -0.9810775518417358,
        -1.0
      ],
      "type": "VEC3"
    },
    {
      "bufferView": 3,
      "componentType": 5126,
      "count": 162,
      "max": [
        0.9790446162223816,
        0.95943683385849,
        0.979966402053833,
        1.0
      ],
      "min": [
        -0.7379791736602783,
        -0.7400655746459961,
        -0.9800186157226563,
        1.0
      ],
      "type": "VEC4"
    },
    {
      "bufferView": 1,
      "componentType": 5126,
      "count": 162,
      "max": [
        0.7060161232948303,
        0.9727661609649658
      ],
      "min": [
        0.013741813600063324,
        0.012129663489758968
      ],
      "type": "VEC2"
    },
    {
      "bufferView": 1,
      "byteOffset": 1296,
      "componentType": 5126,
      "count": 162,
      "max": [
        0.7060161232948303,
        0.9727661609649658
      ],
      "min": [
        0.013741813600063324,
        0.012129663489758968
      ],
      "type": "VEC2"
    },
    {
      "bufferView": 1,
      "byteOffset": 2592,
      "componentType": 5126,
      "count": 162,
      "max": [
        0.7060161232948303,
        0.9727661609649658
      ],
      "min": [
        0.013741813600063324,
        0.012129663489758968
      ],
      "type": "VEC2"
    },
    {
      "bufferView": 0,
      "componentType": 5125,
      "count": 768,
      "type": "SCALAR"
    },
    {
      "bufferView": 2,
      "byteOffset": 3888,
      "componentType": 5126,
      "count": 637,
      "max": [
        0.980327844619751,
        0.23713409900665283,
        0.38264238834381104
      ],
      "min": [
        -0.8246251344680786,
        -0.5213854312896729,
        -0.583609402179718
      ],
      "type": "VEC3"
    },
    {
      "bufferView": 2,
      "byteOffset": 11532,
      "componentType": 5126,
      "count": 637,
      "max": [
        0.9959184527397156,
        0.9897513389587402,
        0.9918122887611389
      ],
      "min": [
        -0.9914270639419556,
        -0.9889070391654968,
        -0.9905650019645691
      ],
      "type": "VEC3"
    },
    {
      "bufferView": 3,
      "byteOffset": 2592,
      "componentType": 5126,
      "count": 637,
      "max": [
        0.9904712438583374,
        0.9943234324455261,
        0.9931516647338867,
        1.0
      ],
      "min": [
        -0.9917179346084595,
        -0.9936780333518982,
        -0.9915209412574768,
        -1.0
      ],
      "type": "VEC4"
    },
    {
      "bufferView": 1,
      "byteOffset": 3888,
      "componentType": 5126,
      "count": 637,
      "max": [
        0.9099365472793579,
        0.9856241941452026
      ],
      "min": [
        0.02467668056488037,
        0.015939384698867798
      ],
      "type": "VEC2"
    },
    {
      "bufferView": 1,
      "byteOffset": 8984,
      "componentType": 5126,
      "count": 637,
      "max": [
        0.9099365472793579,
        0.9856241941452026
      ],
      "min": [
        0.02467668056488037,
        0.015939384698867798
      ],
      "type": "VEC2"
    },
    {
      "bufferView": 1,
      "byteOffset": 14080,
      "componentType": 5126,
      "count": 637,
      "max": [
        0.9099365472793579,
        0.9856241941452026
      ],
      "min": [
        0.02467668056488037,
        0.015939384698867798
      ],
      "type": "VEC2"
    },
    {
      "bufferView": 0,
      "byteOffset": 3072,
      "componentType": 5125,
      "count": 3168,
      "type": "SCALAR"
    },
    {
      "bufferView": 2,
      "byteOffset": 19176,
      "componentType": 5126,
      "count": 481,
      "max": [
        0.47490206360816956,
        0.47490206360816956,
        0.027537651360034943
      ],
      "min": [
        -0.47490206360816956,
        -0.47490206360816956,
        -0.027537651360034943
      ],
      "type": "VEC3"
    },
    {
      "bufferView": 2,
      "byteOffset": 24948,
      "componentType": 5126,
      "count": 481,
      "max": [
        1.0,
        1.0,
        0.9996473789215088
      ],
      "min": [
        -1.0,
        -1.0,
        -0.9996473789215088
      ],
      "type": "VEC3"
    },
    {
      "bufferView": 3,
      "byteOffset": 12784,
      "componentType": 5126,
      "count": 481,
      "max": [
        0.9996418952941895,
        0.9996452927589417,
        0.999981701374054,
        1.0
      ],
      "min": [
        -0.9996417760848999,
        -0.9996391534805298,
        -0.9999855160713196,
        1.0
      ],
      "type": "VEC4"
    },
    {
      "bufferView": 1,
      "byteOffset": 19176,
      "componentType": 5126,
      "count": 481,
      "max": [
        0.9901645183563232,
        0.9936297535896301
      ],
      "min": [
        0.9275842308998108,
        0.010176538489758968
      ],
      "type": "VEC2"
    },
    {
      "bufferView": 1,
      "byteOffset": 23024,
      "componentType": 5126,
      "count": 481,
      "max": [
        0.9901645183563232,
        0.9936297535896301
      ],
      "min": [
        0.9275842308998108,
        0.010176538489758968
      ],
      "type": "VEC2"
    },
    {
      "bufferView": 1,
      "byteOffset": 26872,
      "componentType": 5126,
      "count": 481,
      "max": [
        0.9901645183563232,
        0.9936297535896301
      ],
      "min": [
        0.9275842308998108,
        0.010176538489758968
      ],
      "type": "VEC2"
    },
    {
      "bufferView": 0,
      "byteOffset": 15744,
      "componentType": 5125,
      "count": 2592,
      "type": "SCALAR"
    },
    {
      "bufferView": 2,
      "byteOffset": 30720,
      "componentType": 5126,
      "count": 117,
      "max": [
        0.3189578056335449,
        0.560329258441925,
        0.02647564560174942
      ],
      "min": [
        -0.3201685845851898,
        0.4049423635005951,
        -0.02647564560174942
      ],
      "type": "VEC3"
    },
    {
      "bufferView": 2,
      "byteOffset": 32124,
      "componentType": 5126,
      "count": 117,
      "max": [
        0.6147410869598389,
        1.0,
        0.9996200799942017
      ],
      "min": [
        -0.6027212738990784,
        -1.0,
        -0.9996200799942017
      ],
      "type": "VEC3"
    },
    {
      "bufferView": 3,
      "byteOffset": 20480,
      "componentType": 5126,
      "count": 117,
      "max": [
        0.5457690358161926,
        0.9995332956314087,
        0.9999920725822449,
        1.0
      ],
      "min": [
        -0.6132469177246094,
        -0.998223066329956,
        -0.9999785423278809,
        1.0
      ],
      "type": "VEC4"
    },
    {
      "bufferView": 1,
      "byteOffset": 30720,
      "componentType": 5126,
      "count": 117,
      "max": [
        0.8081406354904175,
        0.5998602509498596
      ],
      "min": [
        0.7250039577484131,
        0.2691912353038788
      ],
      "type": "VEC2"
    },
    {
      "bufferView": 1,
      "byteOffset": 31656,
      "componentType": 5126,
      "count": 117,
      "max": [
        0.8081406354904175,
        0.5998602509498596
      ],
      "min": [
        0.7250039577484131,
        0.2691912353038788
      ],
      "type": "VEC2"
    },
    {
      "bufferView": 1,
      "byteOffset": 32592,
      "componentType": 5126,
      "count": 117,
      "max": [
        0.8081406354904175,
        0.5998602509498596
      ],
      "min": [
        0.7250039577484131,
        0.2691912353038788
      ],
      "type": "VEC2"
    },
    {
      "bufferView": 0,
      "byteOffset": 26112,
      "componentType": 5125,
      "count": 576,
      "type": "SCALAR"
    },
    {
      "bufferView": 2,
      "byteOffset": 33528,
      "componentType": 5126,
      "count": 272,
      "max": [
        0.032105691730976105,
        0.032105691730976105,
        0.36008334159851074
      ],
      "min": [
        -0.032105691730976105,
        -0.032105691730976105,
        -0.36008334159851074
      ],
      "type": "VEC3"
    },
    {
      "bufferView": 2,
      "byteOffset": 36792,
      "componentType": 5126,
      "count": 272,
      "max": [
        0.9996997117996216,
        0.9996997117996216,
        0.7537755966186523
      ],
      "min": [
        -0.9996997117996216,
        -0.9996997117996216,
        -0.7537755966186523
      ],
      "type": "VEC3"
    },
    {
      "bufferView": 3,
      "byteOffset": 22352,
      "componentType": 5126,
      "count": 272,
      "max": [
        0.9999988079071045,
        0.999971330165863,
        0.24587169289588928,
        1.0
      ],
      "min": [
        -0.9997243881225586,
        -0.9999936819076538,
        -0.24422024190425873,
        1.0
      ],
      "type": "VEC4"
    },
    {
      "bufferView": 1,
      "byteOffset": 33528,
      "componentType": 5126,
      "count": 272,
      "max": [
        0.13808025419712067,
        0.9475075006484985
      ],
      "min": [
        0.05280430614948273,
        0.5743152499198914
      ],
      "type": "VEC2"
    },
    {
      "bufferView": 1,
      "byteOffset": 35704,
      "componentType": 5126,
      "count": 272,
      "max": [
        0.13808025419712067,
        0.9475075006484985
      ],
      "min": [
        0.05280430614948273,
        0.5743152499198914
      ],
      "type": "VEC2"
    },
    {
      "bufferView": 1,
      "byteOffset": 37880,
      "componentType": 5126,
      "count": 272,
      "max": [
        0.13808025419712067,
        0.9475075006484985
      ],
      "min": [
        0.05280430614948273,
        0.5743152499198914
      ],
      "type": "VEC2"
    },
    {
      "bufferView": 0,
      "byteOffset": 28416,
      "componentType": 5125,
      "count": 1440,
      "type": "SCALAR"
    },
    {
      "bufferView": 2,
      "byteOffset": 40056,
      "componentType": 5126,
      "count": 544,
      "max": [
        0.032105691730976105,
        0.03388097137212753,
        0.36008334159851074
      ],
      "min": [
        -0.40278002619743347,
        -0.032105691730976105,
        -0.3843705654144287
      ],
      "type": "VEC3"
    },
    {
      "bufferView": 2,
      "byteOffset": 46584,
      "componentType": 5126,
      "count": 544,
      "max": [
        0.9996997117996216,
        0.9996997117996216,
        0.8502359390258789
      ],
      "min": [
        -0.9996997117996216,
        -0.9996997117996216,
        -0.8502359390258789
      ],
      "type": "VEC3"
    },
    {
      "bufferView": 3,
      "byteOffset": 26704,
      "componentType": 5126,
      "count": 544,
      "max": [
        0.9999988675117493,
        0.9999720454216003,
        0.3980168402194977,
        1.0
      ],
      "min": [
        -0.9997244477272034,
        -0.9999936819076538,
        -0.24421998858451843,
        -1.0
      ],
      "type": "VEC4"
    },
    {
      "bufferView": 1,
      "byteOffset": 40056,
      "componentType": 5126,
      "count": 544,
      "max": [
        0.23369793593883514,
        0.9475075006484985
      ],
      "min": [
        0.14842186868190765,
        0.5743152499198914
      ],
      "type": "VEC2"
    },
    {
      "bufferView": 1,
      "byteOffset": 44408,
      "componentType": 5126,
      "count": 544,
      "max": [
        0.23369793593883514,
        0.9475075006484985
      ],
      "min": [
        0.14842186868190765,
        0.5743152499198914
      ],
      "type": "VEC2"
    },
    {
      "bufferView": 1,
      "byteOffset": 48760,
      "componentType": 5126,
      "count": 544,
      "max": [
        0.23369793593883514,
        0.9475075006484985
      ],
      "min": [
        0.14842186868190765,
        0.5743152499198914
      ],
      "type": "VEC2"
    },
    {
      "bufferView": 0,
      "byteOffset": 34176,
      "componentType": 5125,
      "count": 2880,
      "type": "SCALAR"
    }
  ],
  "asset": {
    "extras": {
      "author": "assetfactory (https://sketchfab.com/assetfactory)",
      "license": "SKETCHFAB Standard (https://sketchfab.com/licenses)",
      "source": "https://sketchfab.com/3d-models/post-apocalyptic-ruined-chair-style-2-1186cc10f62c46deb5c8d1ca15701c66",
      "title": "Post apocalyptic ruined chair style 2"
    },
    "generator": "Sketchfab-16.33.0",
    "version": "2.0"
  },
  "bufferViews": [
    {
      "buffer": 0,
      "byteLength": 45696,
      "name": "floatBufferViews",
      "target": 34963
    },
    {
      "buffer": 0,
      "byteLength": 53112,
      "byteOffset": 45696,
      "byteStride": 8,
      "name": "floatBufferViews",
      "target": 34962
    },
    {
      "buffer": 0,
      "byteLength": 53112,
      "byteOffset": 98808,
      "byteStride": 12,
      "name": "floatBufferViews",
      "target": 34962
    },
    {
      "buffer": 0,
      "byteLength": 35408,
      "byteOffset": 151920,
      "byteStride": 16,
      "name": "floatBufferViews",
      "target": 34962
    }
  ],
  "buffers": [
    {
      "byteLength": 187328,
      "uri": "scene.bin"
    }
  ],
  "images": [
    {
      "uri": "textures/Chair2_baseColor.jpeg"
    },
    {
      "uri": "textures/Chair2_metallicRoughness.png"
    },
    {
      "uri": "textures/Chair2_normal.png"
    }
  ],
  "materials": [
    {
      "doubleSided": true,
      "name": "Chair2",
      "normalTexture": {
        "index": 2
      },
      "occlusionTexture": {
        "index": 1
      },
      "pbrMetallicRoughness": {
        "baseColorTexture": {
          "index": 0
        },
        "metallicFactor": 0.0,
        "metallicRoughnessTexture": {
          "index": 1
        }
      }
    }
  ],
  "meshes": [
    {
      "name": "Cylinder.006_Chair2_0",
      "primitives": [
        {
          "attributes": {
            "NORMAL": 1,
            "POSITION": 0,
            "TANGENT": 2,
            "TEXCOORD_0": 3,
            "TEXCOORD_1": 4,
            "TEXCOORD_2": 5
          },
          "indices": 6,
          "material": 0,
          "mode": 4
        }
      ]
    },
    {
      "name": "BezierCurve_Chair2_0",
      "primitives": [
        {
          "attributes": {
            "NORMAL": 8,
            "POSITION": 7,
            "TANGENT": 9,
            "TEXCOORD_0": 10,
            "TEXCOORD_1": 11,
            "TEXCOORD_2": 12
          },
          "indices": 13,
          "material": 0,
          "mode": 4
        }
      ]
    },
    {
      "name": "Torus_Chair2_0",
      "primitives": [
        {
          "attributes": {
            "NORMAL": 15,
            "POSITION": 14,
            "TANGENT": 16,
            "TEXCOORD_0": 17,
            "TEXCOORD_1": 18,
            "TEXCOORD_2": 19
          },
          "indices": 20,
          "material": 0,
          "mode": 4
        }
      ]
    },
    {
      "name": "Torus.001_Chair2_0",
      "primitives": [
        {
          "attributes": {
            "NORMAL": 22,
            "POSITION": 21,
            "TANGENT": 23,
            "TEXCOORD_0": 24,
            "TEXCOORD_1": 25,
            "TEXCOORD_2": 26
          },
          "indices": 27,
          "material": 0,
          "mode": 4
        }
      ]
    },
    {
      "name": "Cylinder.007_Chair2_0",
      "primitives": [
        {
          "attributes": {
            "NORMAL": 29,
            "POSITION": 28,
            "TANGENT": 30,
            "TEXCOORD_0": 31,
            "TEXCOORD_1": 32,
            "TEXCOORD_2": 33
          },
          "indices": 34,
          "material": 0,
          "mode": 4
        }
      ]
    },
    {
      "name": "Cylinder.008_Chair2_0",
      "primitives": [
        {
          "attributes": {
            "NORMAL": 36,
            "POSITION": 35,
            "TANGENT": 37,
            "TEXCOORD_0": 38,
            "TEXCOORD_1": 39,
            "TEXCOORD_2": 40
          },
          "indices": 41,
          "material": 0,
          "mode": 4
        }
      ]
    }
  ],
  "nodes": [
    {
      "children": [
        1
      ],
      "matrix": [
        1.0,
        0.0,
        0.0,
        0.0,
        0.0,
        2.220446049250313e-16,
        -1.0,
        0.0,
        0.0,
        1.0,
        2.220446049250313e-16,
        0.0,
        0.0,
        0.0,
        0.0,
        1.0
      ],
      "name": "Sketchfab_model"
    },
    {
      "children": [
        2
      ],
      "matrix": [
        0.009999999776482582,
        0.0,
        0.0,
        0.0,
        0.0,
        0.0,
        0.009999999776482582,
        0.0,
        0.0,
        -0.009999999776482582,
        0.0,
        0.0,
        0.0,
        0.0,
        0.0,
        1.0
      ],
      "name": "Chair02.fbx"
    },
    {
      "children": [
        3,
        5,
        7,
        9,
        11,
        13
      ],
      "name": "RootNode"
    },
    {
      "children": [
        4
      ],
      "matrix": [
        91.19490051269531,
        0.0,
        0.0,
        0.0,
        0.0,
        -1.4857535148598795e-05,
        -91.1949005126941,
        0.0,
        0.0,
        91.1949005126941,
        -1.4857535148598795e-05,
        0.0,
        2.9230934133844643e-22,
        68.75882720947266,
        -0.06609755754470825,
        1.0
      ],
      "name": "Cylinder.006"
    },
    {
      "mesh": 0,
      "name": "Cylinder.006_Chair2_0"
    },
    {
      "children": [
        6
      ],
      "matrix": [
        -1.2569774887462306,
        -91.18622974763974,
        -1.2251702378545606e-05,
        0.0,
        91.1862297476401,
        -1.256977488744955,
        -9.534090133905831e-06,
        0.0,
        9.364314861724355e-06,
        -1.2381951919999708e-05,
        91.19490051269399,
        0.0,
        12.303987503051758,
        88.73197174072266,
        -0.06609471142292023,
        1.0
      ],
      "name": "BezierCurve"
    },
    {
      "mesh": 1,
      "name": "BezierCurve_Chair2_0"
    },
    {
      "children": [
        8
      ],
      "matrix": [
        91.19490051269531,
        0.0,
        0.0,
        0.0,
        0.0,
        -1.4857535148598795e-05,
        -91.1949005126941,
        0.0,
        0.0,
        91.1949005126941,
        -1.4857535148598795e-05,
        0.0,
        2.9230934133844643e-22,
        50.734649658203125,
        -0.06609755754470825,
        1.0
      ],
      "name": "Torus"
    },
    {
      "mesh": 2,
      "name": "Torus_Chair2_0"
    },
    {
      "children": [
        10
      ],
      "matrix": [
        91.19490051269531,
        0.0,
        0.0,
        0.0,
        0.0,
        -1.4857535148598795e-05,
        -91.1949005126941,
        0.0,
        0.0,
        91.1949005126941,
        -1.4857535148598795e-05,
        0.0,
        2.9230934133844643e-22,
        95.15665435791016,
        -0.06609755754470825,
        1.0
      ],
      "name": "Torus.001"
    },
    {
      "mesh": 3,
      "name": "Torus.001_Chair2_0"
    },
    {
      "children": [
        12
      ],
      "matrix": [
        91.19490051269531,
        9.454792412781423e-16,
        -1.841466565346034e-17,
        0.0,
        2.2081823841299012e-17,
        -3.9044049016771756,
        -91.11129614340852,
        0.0,
        -9.454008609656413e-16,
        91.11129614340852,
        -3.9044049016771756,
        0.0,
        2.9230934133844643e-22,
        128.1893310546875,
        -49.775333404541016,
        1.0
      ],
      "name": "Cylinder.007"
    },
    {
      "mesh": 4,
      "name": "Cylinder.007_Chair2_0"
    },
    {
      "children": [
        14
      ],
      "matrix": [
        90.89220253571764,
        -7.423961232650822,
        -0.07057188044538316,
        0.0,
        -0.47622274421707655,
        -4.964838772700407,
        -91.05841454200257,
        0.0,
        7.4090062940022845,
        90.75651534554305,
        -4.987126185493929,
        0.0,
        15.226353645324707,
        128.1893310546875,
        -49.215049743652344,
        1.0
      ],
      "name": "Cylinder.008"
    },
    {
      "mesh": 5,
      "name": "Cylinder.008_Chair2_0"
    }
  ],
  "samplers": [
    {
      "magFilter": 9729,
      "minFilter": 9987,
      "wrapS": 10497,
      "wrapT": 10497
    }
  ],
  "scene": 0,
  "scenes": [
    {
      "name": "Sketchfab_Scene",
      "nodes": [
        0
      ]
    }
  ],
  "textures": [
    {
      "sampler": 0,
      "source": 0
    },
    {
      "sampler": 0,
      "source": 1
    },
    {
      "sampler": 0,
      "source": 2
    }
  ]
}
